# xmcd
#
# Track frame offsets:
#	150
#	9765
#	21237
#	34969
#	51718
#	69965
#	89322
#	107341
#	120700
#	137742
#	147073
#	167984
#	185355
#	202217
#	214813
#	228585
#	248590
#	262665
#
# Disc length: 3734 seconds
#
# Revision: 3
# Processed by: cddbd v1.5.2PL0 Copyright (c) Steve Scherf et al.
# Submitted via: EasyCDDAExtractor 11.0.3.1
#
DISCID=fa0e9412
DTITLE=Various Artist - The Winners 08 [Disc 1]
DYEAR=2008
DGENRE=Country-Aust
TTITLE0=Lee Kernaghan - Sassafras Gap
TTITLE1=Kirsty Lee Akers - Little Things
TTITLE2=Peter Denahy - The Ringing Of The Steel
TTITLE3=Lou Bradley - One Shoe
TTITLE4=Jetty Road - Real Smooth Cowboy
TTITLE5=Travis Collins feat. Kevin Bennett - Heart Of Blues
TTITLE6=James Blundell - Higher Than Heaven
TTITLE7=The Pigs - Crazy
TTITLE8=Matt Scullion - Giddy Up
TTITLE9=Ruckus - Black 'n' White
TTITLE10=Graham Rodger - Thunderbolt
TTITLE11=The Noll Brothers - Shining Star
TTITLE12=Beccy Cole - Lifeboat
TTITLE13=Karl Broadie with Dianna Corcoran - Count Your Blessings
TTITLE14=Amber Lawrence - Things That Bring Me Down
TTITLE15=Jeff Brown - In The Wings Of The Yard
TTITLE16=Crakajak - The Lunger
TTITLE17=Morgan Evans - Big Skies
EXTD=
EXTT0=
EXTT1=
EXTT2=
EXTT3=
EXTT4=
EXTT5=
EXTT6=
EXTT7=
EXTT8=
EXTT9=
EXTT10=
EXTT11=
EXTT12=
EXTT13=
EXTT14=
EXTT15=
EXTT16=
EXTT17=
PLAYORDER=
